<?xml version="1.0" standalone="no"?>
<!DOCTYPE svg PUBLIC "-//W3C//DTD SVG 20010904//EN"
 "http://www.w3.org/TR/2001/REC-SVG-20010904/DTD/svg10.dtd">
<svg version="1.0" xmlns="http://www.w3.org/2000/svg"
 width="295.000000pt" height="338.000000pt" viewBox="0 0 295.000000 338.000000"
 preserveAspectRatio="xMidYMid meet">

<g transform="translate(0.000000,338.000000) scale(0.100000,-0.100000)"
fill="#fff" stroke="none">
<path d="M2021 3212 c-14 -26 -14 -35 0 -26 8 4 9 -5 5 -32 -3 -22 -8 -69 -12
-107 -3 -37 -11 -70 -16 -73 -5 -3 -7 5 -4 18 3 12 7 59 10 103 l4 80 -9 -65
c-6 -36 -26 -144 -45 -240 -28 -142 -34 -198 -34 -297 l0 -123 -32 0 c-34 0
-52 -10 -127 -67 -24 -18 -95 -53 -160 -78 -73 -28 -133 -59 -158 -80 l-41
-35 -17 118 c-39 254 -51 326 -57 317 -3 -6 -33 -81 -68 -167 -34 -87 -63
-158 -65 -158 -2 0 -27 61 -56 135 -29 74 -55 135 -58 135 -4 0 -17 -38 -30
-85 -13 -47 -26 -85 -30 -85 -4 0 -114 85 -246 189 -132 104 -241 187 -243
186 -2 -2 8 -20 21 -42 66 -104 277 -476 273 -481 -5 -4 -152 21 -198 34 -14
4 -12 -9 13 -93 16 -53 28 -100 27 -104 -2 -4 -74 35 -161 88 -139 83 -163
102 -192 147 -19 28 -68 87 -110 131 l-75 80 55 -133 c30 -73 60 -145 67 -159
10 -21 40 -37 138 -78 79 -33 155 -73 208 -110 45 -32 82 -61 82 -64 0 -3 -17
-25 -38 -48 l-37 -42 -160 -23 c-179 -26 -175 -29 48 -43 64 -5 117 -11 117
-14 0 -3 -65 -24 -144 -45 -80 -21 -150 -42 -157 -47 -8 -4 7 -15 41 -30 86
-37 535 -256 535 -261 0 -3 -81 -94 -179 -204 l-180 -199 208 -3 208 -2 -6
-48 c-3 -26 -10 -126 -16 -222 -6 -96 -13 -181 -15 -188 -8 -24 11 -11 30 21
10 17 48 77 84 132 l66 100 20 -230 20 -230 60 108 c33 59 69 123 80 142 l21
35 128 -240 c71 -133 130 -240 131 -238 1 2 -7 78 -19 171 -12 92 -19 167 -16
167 3 0 28 -22 55 -48 43 -40 56 -63 90 -152 l40 -105 6 65 c4 36 7 91 8 123
0 31 3 57 6 57 3 0 55 -30 116 -66 61 -36 112 -64 114 -62 1 1 -40 67 -91 146
l-94 143 6 85 c4 51 11 84 18 83 6 0 76 -33 155 -72 136 -69 144 -74 157 -111
17 -52 52 -85 100 -96 59 -14 111 -2 149 34 34 32 61 105 50 133 -3 9 -1 41 5
72 7 39 6 81 -1 136 -6 44 -13 103 -16 131 l-5 51 59 24 c139 56 209 207 144
308 -7 11 1 22 31 43 89 65 92 202 6 288 -27 27 -28 32 -18 72 27 119 3 233
-59 278 -28 19 -31 26 -26 52 13 56 8 144 -10 178 -42 81 -134 133 -198 111
-16 -6 -32 -9 -34 -7 -2 2 -10 59 -18 127 -14 113 -36 214 -63 279 -18 42 -13
9 8 -58 20 -64 25 -90 14 -80 -5 6 -54 176 -54 188 0 3 5 -2 10 -10 16 -24 12
6 -6 48 -8 20 -38 100 -65 176 -26 77 -53 144 -58 149 -6 6 -13 1 -20 -11z
m75 -232 l14 -35 -19 23 c-11 12 -27 22 -36 22 -12 0 -15 4 -8 13 5 6 8 21 7
32 -2 11 -5 49 -8 85 l-4 65 19 -85 c11 -47 26 -101 35 -120z m-1 -35 c18 -14
36 -37 39 -51 4 -14 10 -23 14 -20 4 2 5 -15 4 -39 -2 -25 3 -55 12 -73 9 -17
16 -33 16 -34 0 -11 -77 6 -87 19 -8 11 -21 13 -45 8 l-33 -7 25 27 c23 25 24
28 8 39 -14 10 -15 15 -5 26 9 10 9 14 -1 17 -10 4 -10 8 -1 19 9 11 9 18 -1
29 -9 10 -9 15 -1 15 6 0 11 5 11 10 0 6 -7 10 -16 10 -14 0 -14 3 -4 15 17
21 26 19 65 -10z m-90 -37 c-3 -7 -7 -44 -9 -83 -2 -38 -5 -74 -6 -80 -1 -5
-2 -16 -1 -24 1 -12 4 -12 19 1 9 8 29 18 44 22 21 5 30 2 38 -14 8 -16 18
-19 46 -15 27 3 36 0 40 -13 3 -9 19 -44 35 -77 24 -47 30 -72 28 -108 -2 -25
0 -49 4 -53 10 -10 9 -74 -2 -74 -5 0 -16 10 -25 23 l-16 22 6 -27 c5 -24 2
-28 -33 -37 -86 -24 -135 -4 -81 33 l21 15 -24 20 c-23 19 -23 20 -6 39 16 17
16 23 6 40 -11 18 -10 24 6 42 20 22 20 22 -3 40 -24 20 -29 40 -9 40 6 0 19
5 27 10 13 8 12 12 -7 25 -13 9 -23 25 -23 36 0 21 -16 24 -57 8 -15 -6 -29
-9 -31 -7 -2 2 -10 -8 -17 -21 -12 -24 -13 -22 -16 27 -2 29 0 52 4 52 5 0 6
21 3 48 -4 36 -3 40 3 17 8 -28 9 -27 10 16 0 25 6 50 13 57 15 15 19 15 13 0z
m-19 -279 c-21 -25 -26 -27 -26 -12 0 24 42 71 48 55 2 -7 -8 -26 -22 -43z
m-40 -77 l2 -107 -9 85 c-8 71 -6 130 4 130 1 0 3 -48 3 -108z m48 -3 c-38
-40 -43 -28 -8 23 22 34 29 39 32 25 2 -11 -8 -31 -24 -48z m11 -73 c-31 -40
-35 -43 -35 -21 0 17 50 69 58 61 2 -3 -8 -21 -23 -40z m28 -46 c-5 -20 -15
-25 -26 -13 -8 7 11 33 23 33 5 0 6 -9 3 -20z m-78 -11 c54 -15 110 -76 129
-140 9 -27 33 -83 56 -123 46 -85 48 -93 18 -72 -12 9 -34 16 -49 16 -31 0
-93 -39 -132 -83 -24 -28 -27 -29 -16 -7 6 14 18 33 27 43 8 9 10 17 4 17 -5
0 -22 -14 -37 -32 -23 -27 -25 -37 -19 -72 7 -43 31 -113 46 -132 15 -20 76
-26 133 -14 59 12 101 44 111 85 7 30 -18 93 -54 137 l-23 27 22 -2 c27 -2 79
-104 79 -155 0 -127 -143 -189 -276 -119 -143 73 -240 252 -200 367 19 55 13
63 -13 19 l-21 -34 -1 30 c-1 29 -1 29 -9 5 -4 -14 -5 -49 -2 -79 6 -64 -9
-63 -39 3 -17 38 -19 39 -19 13 0 -15 7 -44 15 -64 8 -19 15 -37 15 -39 0 -13
-43 0 -74 21 -30 20 -35 21 -27 7 14 -27 36 -42 78 -58 l38 -13 -35 -1 c-20 0
-52 9 -73 19 -50 25 -47 8 3 -21 22 -13 40 -26 40 -30 0 -17 -69 -7 -94 13
-35 28 -42 20 -14 -16 30 -38 79 -57 128 -49 24 4 40 3 40 -3 0 -12 -52 -39
-95 -50 l-30 -7 34 -4 c56 -6 99 7 138 41 34 30 35 30 23 7 -7 -14 -20 -34
-29 -44 -13 -16 -13 -18 -1 -11 8 4 23 15 33 23 31 27 21 -10 -18 -67 -20 -28
-33 -51 -31 -51 3 0 16 4 29 9 22 9 26 7 31 -15 11 -42 -49 -121 -119 -157
-16 -9 -24 -16 -17 -17 30 -1 90 34 135 78 49 48 54 47 36 -9 -14 -40 -40 -71
-93 -110 -21 -16 -35 -29 -29 -29 5 0 24 11 43 25 41 30 50 31 50 4 0 -32 -28
-84 -72 -134 -24 -28 -33 -42 -21 -38 16 6 17 5 4 -13 -8 -10 -26 -32 -40 -48
-20 -22 -22 -27 -8 -23 23 9 22 0 -9 -40 -42 -55 -68 -133 -45 -133 5 0 12 12
16 27 15 62 157 279 219 335 l41 36 33 -36 c36 -39 36 -37 12 -150 -12 -57 -2
-129 25 -187 l15 -30 -5 30 c-15 100 -16 125 -7 141 8 15 14 7 30 -46 17 -54
20 -60 21 -32 1 17 5 32 10 32 10 0 19 -62 23 -165 l3 -70 -75 -19 c-70 -17
-88 -18 -255 -6 -225 15 -255 26 -290 102 -28 61 -33 95 -9 58 24 -35 86 -100
97 -100 5 0 -2 13 -16 29 -13 16 -41 58 -60 93 -20 35 -48 77 -62 93 l-25 30
10 -28 c5 -16 10 -50 10 -76 0 -54 15 -107 38 -133 25 -30 -1 -20 -71 26 -71
47 -75 37 -11 -34 l34 -38 -42 -6 c-24 -4 -79 -22 -123 -41 -44 -19 -81 -35
-82 -35 -1 0 -3 10 -5 23 -3 19 -6 17 -28 -20 -14 -24 -28 -43 -31 -43 -3 0 2
39 12 88 10 48 19 93 19 100 0 8 -17 12 -50 12 -47 0 -50 2 -50 25 l0 25 -146
0 c-80 0 -144 4 -142 9 2 4 60 61 131 125 122 113 141 136 115 136 -7 0 -19 4
-27 9 -12 8 -8 18 23 55 l37 46 -48 21 c-26 12 -59 26 -73 31 -14 6 -20 12
-15 14 66 26 331 111 334 108 2 -2 -1 -9 -6 -16 -13 -16 -26 -68 -17 -68 3 0
13 9 22 20 16 20 17 17 17 -62 1 -74 4 -90 32 -143 37 -69 41 -63 13 20 -14
39 -20 83 -19 134 0 85 0 85 50 -69 37 -116 55 -149 99 -180 27 -19 29 -19 23
-3 -10 29 67 -48 82 -82 7 -16 14 -24 14 -17 1 6 10 12 21 12 21 0 80 26 80
35 0 3 -19 2 -43 -1 -32 -5 -46 -2 -56 10 -12 14 -10 16 10 16 32 0 101 35
130 66 24 25 23 25 -35 -5 -67 -36 -86 -37 -141 -12 -118 53 -218 287 -186
436 12 56 103 295 112 295 3 0 16 -23 29 -50 23 -49 70 -90 101 -90 8 0 6 5
-6 12 -32 17 -75 61 -75 75 0 8 5 11 10 8 16 -10 12 11 -5 25 -8 7 -20 30 -25
51 -23 83 46 158 227 246 145 70 143 70 113 41 -40 -39 -66 -80 -73 -118 -5
-30 -4 -32 6 -16 7 11 23 31 35 44 13 14 39 53 58 87 48 87 98 109 189 84z
m478 -61 c25 -24 51 -54 57 -67 26 -51 7 -163 -31 -187 -9 -5 -10 1 -5 21 l7
27 -50 -36 c-32 -24 -75 -43 -121 -55 l-71 -18 -24 41 c-38 66 -94 189 -97
214 -3 21 5 26 72 48 41 13 89 24 107 24 17 0 39 3 49 7 16 6 16 7 -2 14 -14
5 -7 8 22 8 35 1 48 -5 87 -41z m-277 -313 c32 -32 54 -85 54 -130 0 -29 -6
-39 -32 -55 -44 -27 -90 -34 -135 -22 l-38 10 53 1 c48 1 131 25 121 36 -3 2
-25 -3 -49 -11 -81 -28 -157 7 -162 76 -3 35 -3 35 44 40 27 3 53 11 60 18 9
9 4 9 -23 2 -70 -20 -78 -7 -22 33 49 35 95 35 129 2z m415 -60 c30 -64 17
-211 -20 -223 -9 -3 -8 4 5 23 l17 27 -37 -26 c-21 -14 -54 -29 -75 -32 -20
-4 -51 -13 -69 -21 -46 -19 -416 -113 -446 -113 -42 0 -106 96 -106 160 0 8
13 -7 29 -33 43 -74 52 -76 30 -7 -11 35 -17 65 -15 68 3 2 17 -10 32 -27 16
-20 30 -29 36 -23 6 6 24 4 46 -4 66 -23 132 -18 185 16 81 51 105 117 72 196
-8 20 -12 40 -10 45 10 15 147 51 177 47 15 -3 28 -1 28 3 0 4 23 -2 52 -14
41 -18 55 -30 69 -62z m36 -290 c21 -22 35 -49 39 -74 4 -23 10 -38 15 -35 5
3 7 -1 5 -8 -3 -7 -7 -25 -10 -40 -10 -44 -62 -95 -114 -112 -104 -34 -223
-49 -337 -42 -142 7 -181 19 -205 59 -11 18 -20 25 -20 17 -1 -9 -6 -5 -15 10
-16 29 -20 100 -5 100 6 0 10 -13 10 -28 0 -16 7 -37 15 -48 13 -17 14 -14 8
32 l-5 51 83 25 c108 33 203 60 309 88 47 12 99 28 115 36 41 19 74 10 112
-31z m-48 -329 c27 -43 27 -99 0 -143 -28 -45 -120 -118 -129 -103 -4 7 -44
13 -96 15 -86 2 -204 25 -253 49 -27 12 -55 62 -66 115 -5 24 -4 32 5 26 7 -4
13 0 16 11 5 18 19 19 197 21 106 0 212 3 237 5 34 2 51 -2 68 -16 25 -22 30
-10 7 20 -14 19 -19 34 -11 34 2 0 14 -15 25 -34z m-487 -338 c2 -38 0 -68 -4
-68 -4 0 -8 24 -8 54 0 29 -2 75 -5 102 -4 43 -4 45 4 14 5 -19 11 -65 13
-102z m34 72 c-17 -21 -26 -26 -26 -16 0 18 39 61 47 52 3 -3 -6 -19 -21 -36z
m194 10 c32 0 60 -44 60 -92 0 -33 0 -33 -13 -9 -14 28 -44 43 -34 17 5 -13 2
-15 -21 -10 -65 16 -68 19 -64 64 4 37 7 41 26 36 11 -3 32 -6 46 -6z m113 0
c12 0 -23 -29 -35 -30 -5 0 -8 9 -8 21 0 15 4 19 16 15 9 -3 21 -6 27 -6z
m-270 -37 c2 -5 -11 -21 -29 -36 -36 -31 -46 -19 -18 21 15 22 39 29 47 15z
m188 -86 c18 -12 39 -34 46 -47 15 -30 17 -120 3 -120 -6 0 -3 -11 5 -24 14
-21 14 -23 -2 -22 -10 1 -32 9 -50 19 -56 30 -194 16 -217 -22 -4 -5 14 -1 40
11 60 26 151 22 192 -9 32 -24 44 -91 29 -163 -8 -38 -11 -42 -18 -24 -4 12
-14 26 -21 30 -10 6 -11 5 -1 -7 17 -21 12 -57 -9 -76 -23 -21 -106 -28 -152
-13 -38 12 -75 63 -56 75 6 3 10 -4 11 -17 0 -23 0 -23 11 -2 13 27 41 42 98
53 42 8 43 9 21 18 l-25 10 29 7 c23 6 26 9 14 17 -7 5 -25 9 -38 9 -20 0 -22
3 -13 12 7 7 24 13 37 13 14 1 25 6 25 11 1 14 -44 16 -87 5 -59 -17 -85 -43
-93 -92 l-7 -44 -2 41 c-1 36 4 46 33 72 35 31 113 50 155 38 53 -15 65 -16
36 -1 -59 28 -155 14 -204 -29 -16 -14 -22 -16 -19 -6 6 21 72 56 122 66 38 7
39 8 12 12 -16 2 -50 -4 -75 -14 -25 -10 -49 -19 -53 -20 -5 -1 -11 -3 -15 -4
-5 -1 -12 -2 -17 -1 -4 1 -6 -12 -4 -28 2 -17 1 -28 -4 -25 -4 3 -8 14 -8 25
0 67 90 129 189 130 48 0 52 2 31 10 -48 20 -164 -12 -199 -55 -24 -29 -31
-17 -33 52 l-1 67 -6 -55 -6 -54 -37 44 -37 45 30 13 c17 7 39 12 48 10 9 -2
25 7 35 20 49 62 191 83 257 39z"/>
<path d="M2200 2580 c23 -46 26 -63 5 -36 -21 28 -18 2 4 -34 l18 -31 0 43 c1
24 -7 55 -15 71 -25 42 -35 32 -12 -13z"/>
<path d="M2211 2450 c27 -56 29 -58 29 -32 0 11 -11 34 -25 49 l-26 28 22 -45z"/>
<path d="M2162 982 c-80 -29 -102 -54 -102 -119 0 -29 2 -53 5 -53 3 0 13 8
24 19 27 27 131 64 163 57 16 -3 28 -3 28 -1 0 10 -61 35 -85 35 -31 0 -33 18
-2 24 12 3 31 7 42 9 11 3 -2 6 -30 7 -47 2 -48 2 -20 11 32 10 120 -2 156
-21 35 -19 32 -3 -4 19 -50 31 -112 35 -175 13z"/>
<path d="M2344 692 c2 -17 0 -33 -5 -34 -4 -2 1 -14 11 -28 l20 -25 0 46 c0
29 -6 51 -15 59 -13 11 -14 8 -11 -18z"/>
<path d="M2173 576 c-36 -32 -24 -45 50 -53 58 -6 107 12 107 39 0 7 -7 5 -17
-5 -24 -20 -67 -31 -98 -23 -32 8 -24 23 18 35 29 8 30 9 7 11 -23 1 -23 2 -5
10 18 8 17 9 -7 9 -15 1 -39 -10 -55 -23z"/>
</g>
</svg>
