<!DOCTYPE svg PUBLIC "-//W3C//DTD SVG 1.1//EN" "http://www.w3.org/Graphics/SVG/1.1/DTD/svg11.dtd">

<!-- Uploaded to: SVG Repo, www.svgrepo.com, Transformed by: SVG Repo Mixer Tools -->
<svg fill="#fff" version="1.1" id="Layer_1" xmlns:x="&amp;ns_extend;" xmlns:i="&amp;ns_ai;" xmlns:graph="&amp;ns_graphs;" xmlns="http://www.w3.org/2000/svg" xmlns:xlink="http://www.w3.org/1999/xlink" width="64px" height="64px" viewBox="0 0 24 24" enable-background="new 0 0 24 24" xml:space="preserve">

<g id="SVGRepo_bgCarrier" stroke-width="0"/>

<g id="SVGRepo_tracerCarrier" stroke-linecap="round" stroke-linejoin="round"/>

<g id="SVGRepo_iconCarrier"> <metadata> <sfw> <slices> </slices> <slicesourcebounds width="505" height="984" bottomleftorigin="true" x="0" y="-552"> </slicesourcebounds> </sfw> </metadata> <g> <g> <g> <path d="M12,24C5.4,24,0,18.6,0,12S5.4,0,12,0s12,5.4,12,12S18.6,24,12,24z M12,2C6.5,2,2,6.5,2,12s4.5,10,10,10s10-4.5,10-10 S17.5,2,12,2z"/> </g> </g> <g> <g> <path d="M11,18c-0.4,0-0.7-0.2-1-0.5c-0.5-0.7-0.1-1.7,1-4.4c0.2-0.4,0.4-0.9,0.6-1.3c-0.4,0.3-1,0.3-1.4-0.1 c-0.4-0.4-0.4-1,0-1.4C10.4,10.2,11.6,9,13,9c0.4,0,0.7,0.2,1,0.5c0.5,0.7,0.1,1.7-1,4.4c-0.2,0.4-0.4,0.9-0.6,1.3 c0.4-0.3,1-0.3,1.4,0.1c0.4,0.4,0.4,1,0,1.4C13.6,16.8,12.4,18,11,18z"/> </g> </g> <g> <g> <circle cx="13.5" cy="6.5" r="1.5"/> </g> <g> <path d="M13.5,8.5c-1.1,0-2-0.9-2-2s0.9-2,2-2s2,0.9,2,2S14.6,8.5,13.5,8.5z M13.5,5.5c-0.6,0-1,0.4-1,1s0.4,1,1,1s1-0.4,1-1 S14.1,5.5,13.5,5.5z"/> </g> </g> </g> </g>

</svg>