<!DOCTYPE svg PUBLIC "-//W3C//DTD SVG 1.1//EN" "http://www.w3.org/Graphics/SVG/1.1/DTD/svg11.dtd">
<!-- Uploaded to: SVG Repo, www.svgrepo.com, Transformed by: SVG Repo Mixer Tools -->
<svg fill="#ffffff" width="64px" height="64px" viewBox="0 0 32 32" id="Outlined" xmlns="http://www.w3.org/2000/svg" stroke="#ffffff">
<g id="SVGRepo_bgCarrier" stroke-width="0"/>
<g id="SVGRepo_tracerCarrier" stroke-linecap="round" stroke-linejoin="round"/>
<g id="SVGRepo_iconCarrier"> <title/> <g id="Fill"> <path d="M30,24a6,6,0,0,1-6-6V14a8,8,0,0,0-5.39-7.55A3,3,0,0,0,19,5a3,3,0,0,0-6,0,3,3,0,0,0,.39,1.45A8,8,0,0,0,8,14v4a6,6,0,0,1-6,6v2h9.1A5,5,0,0,0,16,30a4.67,4.67,0,0,0,4.91-4H30ZM15,5a1,1,0,1,1,1,1A1,1,0,0,1,15,5Zm1,23a3,3,0,0,1-2.82-2h5.68A2.7,2.7,0,0,1,16,28ZM7.29,24A8,8,0,0,0,10,18V14a6,6,0,0,1,12,0v4a8,8,0,0,0,2.71,6Z"/> </g> </g>
</svg>